<svg width="458" height="83" viewBox="0 0 458 83" fill="none" xmlns="http://www.w3.org/2000/svg">
<path d="M39.88 53.336C37.544 53.336 35.432 52.936 33.544 52.136C31.688 51.336 30.216 50.184 29.128 48.68C28.04 47.176 27.48 45.4 27.448 43.352H34.648C34.744 44.728 35.224 45.816 36.088 46.616C36.984 47.416 38.2 47.816 39.736 47.816C41.304 47.816 42.536 47.448 43.432 46.712C44.328 45.944 44.776 44.952 44.776 43.736C44.776 42.744 44.472 41.928 43.864 41.288C43.256 40.648 42.488 40.152 41.56 39.8C40.664 39.416 39.416 39 37.816 38.552C35.64 37.912 33.864 37.288 32.488 36.68C31.144 36.04 29.976 35.096 28.984 33.848C28.024 32.568 27.544 30.872 27.544 28.76C27.544 26.776 28.04 25.048 29.032 23.576C30.024 22.104 31.416 20.984 33.208 20.216C35 19.416 37.048 19.016 39.352 19.016C42.808 19.016 45.608 19.864 47.752 21.56C49.928 23.224 51.128 25.56 51.352 28.568H43.96C43.896 27.416 43.4 26.472 42.472 25.736C41.576 24.968 40.376 24.584 38.872 24.584C37.56 24.584 36.504 24.92 35.704 25.592C34.936 26.264 34.552 27.24 34.552 28.52C34.552 29.416 34.84 30.168 35.416 30.776C36.024 31.352 36.76 31.832 37.624 32.216C38.52 32.568 39.768 32.984 41.368 33.464C43.544 34.104 45.32 34.744 46.696 35.384C48.072 36.024 49.256 36.984 50.248 38.264C51.24 39.544 51.736 41.224 51.736 43.304C51.736 45.096 51.272 46.76 50.344 48.296C49.416 49.832 48.056 51.064 46.264 51.992C44.472 52.888 42.344 53.336 39.88 53.336ZM64.282 47.672H75.322V53H57.562V19.496H64.282V47.672ZM100.137 46.616H86.7933L84.5853 53H77.5293L89.5773 19.448H97.4013L109.449 53H102.345L100.137 46.616ZM98.3133 41.24L93.4653 27.224L88.6172 41.24H98.3133ZM144.049 19.496L131.761 53H123.601L111.313 19.496H118.513L127.729 46.136L136.897 19.496H144.049ZM157.883 36.2C157.883 32.904 158.619 29.96 160.091 27.368C161.595 24.744 163.627 22.712 166.187 21.272C168.779 19.8 171.675 19.064 174.875 19.064C178.619 19.064 181.899 20.024 184.715 21.944C187.531 23.864 189.499 26.52 190.619 29.912H182.891C182.123 28.312 181.035 27.112 179.627 26.312C178.251 25.512 176.651 25.112 174.827 25.112C172.875 25.112 171.131 25.576 169.595 26.504C168.091 27.4 166.907 28.68 166.043 30.344C165.211 32.008 164.795 33.96 164.795 36.2C164.795 38.408 165.211 40.36 166.043 42.056C166.907 43.72 168.091 45.016 169.595 45.944C171.131 46.84 172.875 47.288 174.827 47.288C176.651 47.288 178.251 46.888 179.627 46.088C181.035 45.256 182.123 44.04 182.891 42.44H190.619C189.499 45.864 187.531 48.536 184.715 50.456C181.931 52.344 178.651 53.288 174.875 53.288C171.675 53.288 168.779 52.568 166.187 51.128C163.627 49.656 161.595 47.624 160.091 45.032C158.619 42.44 157.883 39.496 157.883 36.2ZM203.079 47.672H214.119V53H196.359V19.496H203.079V47.672ZM233.942 53.336C230.806 53.336 227.926 52.6 225.302 51.128C222.678 49.656 220.598 47.624 219.062 45.032C217.526 42.408 216.758 39.448 216.758 36.152C216.758 32.888 217.526 29.96 219.062 27.368C220.598 24.744 222.678 22.696 225.302 21.224C227.926 19.752 230.806 19.016 233.942 19.016C237.11 19.016 239.99 19.752 242.582 21.224C245.206 22.696 247.27 24.744 248.774 27.368C250.31 29.96 251.078 32.888 251.078 36.152C251.078 39.448 250.31 42.408 248.774 45.032C247.27 47.624 245.206 49.656 242.582 51.128C239.958 52.6 237.078 53.336 233.942 53.336ZM233.942 47.336C235.958 47.336 237.734 46.888 239.27 45.992C240.806 45.064 242.006 43.752 242.87 42.056C243.734 40.36 244.166 38.392 244.166 36.152C244.166 33.912 243.734 31.96 242.87 30.296C242.006 28.6 240.806 27.304 239.27 26.408C237.734 25.512 235.958 25.064 233.942 25.064C231.926 25.064 230.134 25.512 228.566 26.408C227.03 27.304 225.83 28.6 224.966 30.296C224.102 31.96 223.67 33.912 223.67 36.152C223.67 38.392 224.102 40.36 224.966 42.056C225.83 43.752 227.03 45.064 228.566 45.992C230.134 46.888 231.926 47.336 233.942 47.336ZM278.878 19.496V24.92H269.95V53H263.23V24.92H254.302V19.496H278.878ZM311.573 19.496V53H304.853V38.744H290.501V53H283.781V19.496H290.501V33.272H304.853V19.496H311.573ZM324.907 19.496V53H318.187V19.496H324.907ZM360.202 53H353.482L338.266 30.008V53H331.546V19.448H338.266L353.482 42.488V19.448H360.202V53ZM390.171 29.576C389.403 28.168 388.347 27.096 387.003 26.36C385.659 25.624 384.091 25.256 382.299 25.256C380.315 25.256 378.555 25.704 377.019 26.6C375.483 27.496 374.283 28.776 373.419 30.44C372.555 32.104 372.123 34.024 372.123 36.2C372.123 38.44 372.555 40.392 373.419 42.056C374.315 43.72 375.547 45 377.115 45.896C378.683 46.792 380.507 47.24 382.587 47.24C385.147 47.24 387.243 46.568 388.875 45.224C390.507 43.848 391.579 41.944 392.091 39.512H380.571V34.376H398.715V40.232C398.267 42.568 397.307 44.728 395.835 46.712C394.363 48.696 392.459 50.296 390.123 51.512C387.819 52.696 385.227 53.288 382.347 53.288C379.115 53.288 376.187 52.568 373.563 51.128C370.971 49.656 368.923 47.624 367.419 45.032C365.947 42.44 365.211 39.496 365.211 36.2C365.211 32.904 365.947 29.96 367.419 27.368C368.923 24.744 370.971 22.712 373.563 21.272C376.187 19.8 379.099 19.064 382.299 19.064C386.075 19.064 389.355 19.992 392.139 21.848C394.923 23.672 396.843 26.248 397.899 29.576H390.171Z" fill="white"/>
<line opacity="0.8" y1="24" x2="433" y2="24" stroke="#007DB9" stroke-width="6"/>
<line opacity="0.8" y1="36" x2="433" y2="36" stroke="#007DB9" stroke-width="6"/>
<line opacity="0.8" y1="47" x2="433" y2="47" stroke="#007DB9" stroke-width="6"/>
</svg>
